<svg xmlns="http://www.w3.org/2000/svg" width="38" height="38" viewBox="0 0 38 38">
  <g id="delivery-1" transform="translate(-0.306 0.2)">
    <circle id="Ellipse_1" data-name="Ellipse 1" cx="19" cy="19" r="19" transform="translate(0.306 -0.2)" fill="#002bff"/>
    <g id="Group_1" data-name="Group 1" transform="translate(6.136 8.992)">
      <path id="Path_1" data-name="Path 1" d="M44.169,321.244a3.265,3.265,0,1,0,3.253,3.265A3.263,3.263,0,0,0,44.169,321.244Zm0,4.842a1.576,1.576,0,1,1,1.57-1.576A1.575,1.575,0,0,1,44.169,326.086ZM58.7,321.244a3.265,3.265,0,1,0,3.253,3.265A3.263,3.263,0,0,0,58.7,321.244Zm0,4.842a1.576,1.576,0,1,1,1.571-1.576A1.575,1.575,0,0,1,58.7,326.086Z" transform="translate(-38.833 -308.071)" fill="#fff"/>
      <path id="Path_2" data-name="Path 2" d="M3.209,144.864a.844.844,0,0,0-.751.458L.094,149.91A.844.844,0,0,0,0,150.3v6.812a.844.844,0,0,0,.844.844H2.9v-1.689H1.689V150.5l2.035-3.948h6.437v-1.689Zm4.644,11.4h9.626v1.689H7.853Z" transform="translate(0 -140.67)" fill="#fff"/>
      <path id="Path_3" data-name="Path 3" d="M198.919,62.479H183.86a.844.844,0,0,0-.844.844V78.917H184.7V64.168h13.37v13.9h-2.027v1.689h2.871a.844.844,0,0,0,.844-.844V63.323A.844.844,0,0,0,198.919,62.479Z" transform="translate(-173.776 -62.479)" fill="#fff"/>
      <path id="Path_4" data-name="Path 4" d="M16.587,162.069H25.9v1.689H16.587Zm20.981-3.657a.844.844,0,0,0-1.192-.07L32.19,162.06l-1.661-1.682a.844.844,0,1,0-1.2,1.187l2.223,2.252a.844.844,0,0,0,1.161.038L37.5,159.6a.844.844,0,0,0,.071-1.192Z" transform="translate(-15.743 -153.259)" fill="#fff"/>
    </g>
  </g>
</svg>
