<svg xmlns="http://www.w3.org/2000/svg" width="38" height="38" viewBox="0 0 38 38">
  <g id="delivery-4" transform="translate(601 -912)">
    <circle id="Ellipse_4" data-name="Ellipse 4" cx="19" cy="19" r="19" transform="translate(-601 912)" fill="#002bff"/>
    <g id="Group_6" data-name="Group 6" transform="translate(-594 919)">
      <path id="Path_8" data-name="Path 8" d="M20.052,1.047a.967.967,0,0,0-.967.967V2.82A11.421,11.421,0,0,0,11.539,0,11.573,11.573,0,0,0,0,11.58a.967.967,0,1,0,1.933,0,9.637,9.637,0,0,1,9.606-9.647,9.508,9.508,0,0,1,6.227,2.3H16.88a.967.967,0,1,0,0,1.933h3.172a.967.967,0,0,0,.967-.967V2.014a.967.967,0,0,0-.967-.967Zm2.18,9.6a.967.967,0,0,0-.967.967,9.637,9.637,0,0,1-9.606,9.647,9.507,9.507,0,0,1-6.167-2.247h.928a.967.967,0,1,0,0-1.933H3.249l-.025,0a.937.937,0,0,0-.11.011c-.027,0-.054.006-.081.013a.973.973,0,0,0-.095.029c-.029.01-.058.019-.087.031s-.052.028-.077.042a1.043,1.043,0,0,0-.089.055c-.007.005-.015.008-.023.014s-.029.028-.044.042a.758.758,0,0,0-.134.142c-.019.025-.037.049-.054.075s-.031.055-.045.083a.887.887,0,0,0-.038.085c-.011.03-.02.06-.028.091s-.016.059-.021.089-.008.069-.011.1-.006.039-.006.059v3.186a.967.967,0,1,0,1.933,0V20.47A11.425,11.425,0,0,0,11.66,23.2,11.573,11.573,0,0,0,23.2,11.619.967.967,0,0,0,22.233,10.652Z" fill="#fff"/>
    </g>
  </g>
</svg>
