<svg xmlns="http://www.w3.org/2000/svg" width="38" height="38" viewBox="0 0 38 38">
  <g id="delivery-2" transform="translate(-0.306 -0.631)">
    <circle id="Ellipse_2" data-name="Ellipse 2" cx="19" cy="19" r="19" transform="translate(0.306 0.631)" fill="#002bff"/>
    <g id="Group_3" data-name="Group 3" transform="translate(6.245 7.689)">
      <g id="Group_3-2" data-name="Group 3" transform="translate(0 0)">
        <path id="Path_5" data-name="Path 5" d="M25.591,4.874H7.5a.443.443,0,0,0,0,.886h2.667A6.749,6.749,0,0,0,7.06,11.521a6.749,6.749,0,0,0,3.108,5.761H.882V5.76H5.295a.443.443,0,0,0,0-.886H.882A.884.884,0,0,0,0,5.76V17.282a.884.884,0,0,0,.882.886H25.591a.884.884,0,0,0,.882-.886V5.76A.884.884,0,0,0,25.591,4.874ZM7.942,11.521A5.549,5.549,0,0,1,13.237,5.76a5.549,5.549,0,0,1,5.295,5.761,5.549,5.549,0,0,1-5.295,5.761A5.549,5.549,0,0,1,7.942,11.521Zm17.649,5.761H16.306a6.749,6.749,0,0,0,3.108-5.761A6.749,6.749,0,0,0,16.306,5.76h9.286ZM23.269.092A.879.879,0,0,0,22.6.043l-9.5,3.2a.444.444,0,0,0,.281.842l9.5-3.2.975,2.92a.442.442,0,0,0,.838-.281L23.712.606a.872.872,0,0,0-.443-.514ZM13.1,18.958l-9.5,3.2-.975-2.92a.442.442,0,0,0-.838.281l.974,2.917A.879.879,0,0,0,3.874,23l9.5-3.2a.444.444,0,0,0-.281-.842Z" transform="translate(0 0.001)" fill="#fff" stroke="#fff" stroke-width="1"/>
        <path id="Path_6" data-name="Path 6" d="M16.787,18.324a.441.441,0,1,0,.882,0,2.059,2.059,0,0,0-1.764-1.954v-.04a.441.441,0,1,0-.882,0v.04a1.964,1.964,0,0,0,0,3.908v2.188a1.139,1.139,0,0,1-.882-1.04.441.441,0,1,0-.882,0,2.059,2.059,0,0,0,1.764,1.954v.04a.441.441,0,1,0,.882,0v-.04a1.964,1.964,0,0,0,0-3.908V17.284A1.139,1.139,0,0,1,16.787,18.324Zm-2.646,0a1.139,1.139,0,0,1,.882-1.04v2.079a1.139,1.139,0,0,1-.882-1.04Zm2.646,3.1a1.139,1.139,0,0,1-.882,1.04V20.386A1.139,1.139,0,0,1,16.787,21.426Zm7.937,3.324h1.764a.442.442,0,0,0,.441-.443V22.534a.441.441,0,1,0-.882,0v1.329H24.724a.443.443,0,0,0,0,.886ZM4.441,22.09A.442.442,0,0,0,4,22.534v1.773a.442.442,0,0,0,.441.443H6.2a.443.443,0,0,0,0-.886H4.882V22.534A.442.442,0,0,0,4.441,22.09ZM6.2,15H4.441A.442.442,0,0,0,4,15.443v1.773a.441.441,0,1,0,.882,0V15.886H6.2A.443.443,0,0,0,6.2,15Zm18.519.886h1.323v1.329a.441.441,0,1,0,.882,0V15.443A.442.442,0,0,0,26.488,15H24.724a.443.443,0,0,0,0,.886Z" transform="translate(-2.227 -8.352)" fill="#fff" stroke="#fff" stroke-width="1"/>
      </g>
    </g>
  </g>
</svg>
