<svg xmlns="http://www.w3.org/2000/svg" width="24.412" height="24.412" viewBox="0 0 24.412 24.412">
  <g id="instagram-icon" transform="translate(-6 -6)">
    <circle id="Ellipse_1" data-name="Ellipse 1" cx="2.563" cy="2.563" r="2.563" transform="translate(15.643 15.643)"/>
    <path id="Path_2" data-name="Path 2" d="M18.206,6A12.206,12.206,0,1,0,30.412,18.206,12.206,12.206,0,0,0,18.206,6Zm7.541,15.308a4.618,4.618,0,0,1-1.23,3.142,4.7,4.7,0,0,1-3.175,1.217H15.071A4.7,4.7,0,0,1,11.9,24.45a4.618,4.618,0,0,1-1.23-3.142V15.1a4.619,4.619,0,0,1,1.23-3.142,4.7,4.7,0,0,1,3.175-1.217h6.271a4.7,4.7,0,0,1,3.175,1.217,4.618,4.618,0,0,1,1.23,3.142Z"/>
    <path id="Path_3" data-name="Path 3" d="M138.864,131.526c-1.528-.042-4.585-.042-6.112,0a3.2,3.2,0,0,0-2.262.825,3.244,3.244,0,0,0-.833,2.238c-.04,1.492,0,5.969,0,5.969a3.26,3.26,0,0,0,.833,2.238,3.2,3.2,0,0,0,2.262.825c1.528.042,4.585.042,6.112,0a3.2,3.2,0,0,0,2.262-.825,3.244,3.244,0,0,0,.833-2.238v-5.969a3.244,3.244,0,0,0-.833-2.238A3.2,3.2,0,0,0,138.864,131.526Zm-3.056,10.021a3.973,3.973,0,1,1,3.973-3.973A3.973,3.973,0,0,1,135.808,141.547Zm3.99-7.126a.795.795,0,1,1,.795-.795.795.795,0,0,1-.795.795Z" transform="translate(-117.602 -119.367)"/>
  </g>
</svg>
