<svg xmlns="http://www.w3.org/2000/svg" width="26.649" height="26.649" viewBox="0 0 26.649 26.649">
  <g id="wrong-Icon" transform="translate(-2 -2)">
    <path id="Path_10" data-name="Path 10" d="M15.325,28.649A13.325,13.325,0,1,1,28.649,15.325,13.364,13.364,0,0,1,15.325,28.649Zm0-24.746A11.421,11.421,0,1,0,26.746,15.325,11.455,11.455,0,0,0,15.325,3.9Z" fill="red"/>
    <path id="Path_11" data-name="Path 11" d="M21.858,20.526,17,15.672l4.854-4.854a.942.942,0,0,0-1.332-1.332l-4.854,4.854L10.818,9.486a.942.942,0,0,0-1.332,1.332l4.854,4.854L9.486,20.526a.942.942,0,0,0,1.332,1.332L15.672,17l4.854,4.854a.942.942,0,0,0,1.332-1.332Z" transform="translate(-0.347 -0.347)" fill="red"/>
  </g>
</svg>
